<svg
        height="32px"
        width="32px"
        version="1.1"
        xmlns="http://www.w3.org/2000/svg"
        viewBox="0 0 512 512"
>
    <path
            fill="#53E7D3"
            d="M39.256,212.266c-3.926,7.05-3.21,15.886,1.93,22.2l177.087,217.496
          c3.682,4.525,9.165,7.144,14.948,7.144c5.786,0,11.266-2.619,14.951-7.144l177.084-217.495c5.143-6.314,5.857-15.15,1.932-22.2
          L39.256,212.266L39.256,212.266z"
    />
    <g>
        <polygon
                fill="#B9F5ED"
                points="156.748,223.248 233.209,459.104 233.222,459.105 233.236,459.104 309.697,223.248 	"
        />
        <path
                fill="#B9F5ED"
                d="M426.497,211.101l-63.195-97.235c-3.59-5.521-9.671-8.843-16.19-8.843H119.335
          c-6.518,0-12.599,3.323-16.189,8.843l-63.199,97.235c-2.395,3.684-3.428,7.958-3.151,12.146h392.852
          C429.925,219.059,428.891,214.786,426.497,211.101z"
        />
    </g>
    <g>
        <path
                fill="#FFC753"
                d="M95.739,44.603C69.709,37.31,65.115,32.649,57.928,6.238c-0.905-3.325-3.886-5.628-7.285-5.628
		c-3.4,0-6.382,2.303-7.287,5.628c-7.188,26.411-11.78,31.072-37.81,38.364C2.27,45.52,0,48.544,0,51.995
		c0,3.449,2.27,6.474,5.546,7.393c26.029,7.292,30.622,11.954,37.81,38.364c0.905,3.324,3.887,5.628,7.287,5.628
		c3.399,0,6.38-2.304,7.285-5.628c7.187-26.411,11.781-31.071,37.811-38.364c3.277-0.917,5.546-3.942,5.546-7.393
		C101.285,48.544,99.016,45.52,95.739,44.603z"
        />
        <path
                fill="#FFC753"
                d="M507.403,462.687c-21.567-6.043-25.373-9.904-31.328-31.787c-0.75-2.754-3.22-4.662-6.036-4.662
		c-2.818,0-5.288,1.908-6.037,4.662c-5.954,21.884-9.762,25.745-31.328,31.787c-2.716,0.762-4.596,3.267-4.596,6.126
		s1.881,5.363,4.596,6.126c21.567,6.042,25.375,9.905,31.328,31.788c0.749,2.754,3.22,4.662,6.037,4.662
		c2.817,0,5.286-1.908,6.036-4.662c5.955-21.883,9.762-25.746,31.328-31.788c2.716-0.762,4.596-3.267,4.596-6.126
		C512,465.954,510.119,463.45,507.403,462.687z"
        />
    </g>
    <path
            fill="#D69EF0"
            d="M472.954,315.559H260.245l-2.514,3.868c-2.642,4.066-2.359,9.404,0.698,13.158l99.75,122.512
	c2.074,2.55,5.164,4.025,8.421,4.025c3.258,0,6.347-1.475,8.421-4.025l99.75-122.512c3.057-3.754,3.341-9.094,0.697-13.158
	L472.954,315.559z"
    />
    <path
            fill="#EFC7FF"
            d="M475.468,319.427l-35.597-54.774c-2.023-3.109-5.448-4.98-9.12-4.98H302.449
	c-3.67,0-7.098,1.872-9.118,4.98l-35.6,54.774c-1.348,2.074-1.93,4.48-1.775,6.84h221.288
	C477.399,323.908,476.817,321.503,475.468,319.427z"
    />
    <path
            fill="#BC81E2"
            d="M297.487,260.898c-1.655,0.857-3.099,2.131-4.153,3.754l-35.602,54.775
	c-1.348,2.073-1.931,4.479-1.774,6.84h84.018L297.487,260.898z"
    />
    <polygon
            fill="#EFC7FF"
            points="323.522,326.267 366.6,459.147 409.677,326.267 "
    />
    <path
            fill="#BC81E2"
            d="M393.224,326.267h84.021c0.155-2.36-0.426-4.766-1.777-6.84l-35.601-54.775
	c-1.054-1.624-2.497-2.899-4.155-3.754L393.224,326.267z"
    />
    <g>
        <path
                fill="#37C4B3"
                d="M426.497,211.101l-63.201-97.239c-1.875-2.882-4.436-5.145-7.378-6.669l-75.427,116.054H429.65 C429.924,219.058,428.893,214.785,426.497,211.101z"
        />
        <path
                fill="#37C4B3"
                d="M103.15,113.863l-63.203,97.238c-2.395,3.684-3.426,7.957-3.151,12.146h149.158l-75.429-116.054
		C107.584,108.716,105.024,110.98,103.15,113.863z"
        />
    </g>
    <polygon
            fill="#53E7D3"
            points="233.111,105.023 156.273,223.248 310.173,223.248 233.333,105.023 "
    />
    <polygon
            fill="#D69EF0"
            points="366.537,259.674 323.255,326.267 409.946,326.267 366.662,259.674 "
    />
</svg>
